<mxfile host="app.diagrams.net" modified="2023-09-22T12:54:20.508Z" agent="Mozilla/5.0 (Windows NT 10.0; Win64; x64) AppleWebKit/537.36 (KHTML, like Gecko) Chrome/116.0.0.0 Safari/537.36" etag="xMmvYb_CrJS_BgzA-To7" version="21.7.5" type="device">
  <diagram name="Страница — 1" id="1O7Gtt7k67y76RaPyRUI">
    <mxGraphModel dx="1147" dy="632" grid="1" gridSize="10" guides="1" tooltips="1" connect="1" arrows="1" fold="1" page="1" pageScale="1" pageWidth="827" pageHeight="1169" math="0" shadow="0">
      <root>
        <mxCell id="0" />
        <mxCell id="1" parent="0" />
        <mxCell id="NdJ_koSOOykiN_rZKej--1" value="Диспетчер" style="shape=umlActor;verticalLabelPosition=bottom;verticalAlign=top;html=1;outlineConnect=0;" parent="1" vertex="1">
          <mxGeometry x="100" y="270" width="30" height="60" as="geometry" />
        </mxCell>
        <mxCell id="NdJ_koSOOykiN_rZKej--2" value="Водитель" style="shape=umlActor;verticalLabelPosition=bottom;verticalAlign=top;html=1;outlineConnect=0;" parent="1" vertex="1">
          <mxGeometry x="760" y="260" width="30" height="60" as="geometry" />
        </mxCell>
        <mxCell id="NdJ_koSOOykiN_rZKej--3" value="Распределяет&amp;nbsp;" style="ellipse;whiteSpace=wrap;html=1;" parent="1" vertex="1">
          <mxGeometry x="210" y="260" width="90" height="60" as="geometry" />
        </mxCell>
        <mxCell id="NdJ_koSOOykiN_rZKej--4" value="Автомобиль" style="ellipse;whiteSpace=wrap;html=1;" parent="1" vertex="1">
          <mxGeometry x="610" y="310" width="90" height="60" as="geometry" />
        </mxCell>
        <mxCell id="NdJ_koSOOykiN_rZKej--6" value="Рейс" style="ellipse;whiteSpace=wrap;html=1;" parent="1" vertex="1">
          <mxGeometry x="460" y="250" width="90" height="60" as="geometry" />
        </mxCell>
        <mxCell id="NdJ_koSOOykiN_rZKej--8" value="" style="endArrow=none;html=1;rounded=0;entryX=0;entryY=0.5;entryDx=0;entryDy=0;exitX=1;exitY=0.3333333333333333;exitDx=0;exitDy=0;exitPerimeter=0;" parent="1" source="NdJ_koSOOykiN_rZKej--1" target="NdJ_koSOOykiN_rZKej--3" edge="1">
          <mxGeometry width="50" height="50" relative="1" as="geometry">
            <mxPoint x="120" y="230" as="sourcePoint" />
            <mxPoint x="170" y="180" as="targetPoint" />
          </mxGeometry>
        </mxCell>
        <mxCell id="NdJ_koSOOykiN_rZKej--9" value="" style="endArrow=none;html=1;rounded=0;exitX=1;exitY=0.5;exitDx=0;exitDy=0;entryX=0;entryY=0.3333333333333333;entryDx=0;entryDy=0;entryPerimeter=0;" parent="1" source="NdJ_koSOOykiN_rZKej--4" target="NdJ_koSOOykiN_rZKej--2" edge="1">
          <mxGeometry width="50" height="50" relative="1" as="geometry">
            <mxPoint x="300" y="460" as="sourcePoint" />
            <mxPoint x="350" y="410" as="targetPoint" />
          </mxGeometry>
        </mxCell>
        <mxCell id="NdJ_koSOOykiN_rZKej--10" value="extend" style="html=1;verticalAlign=bottom;endArrow=open;dashed=1;endSize=8;curved=0;rounded=0;entryX=0.027;entryY=0.404;entryDx=0;entryDy=0;exitX=1;exitY=0.5;exitDx=0;exitDy=0;entryPerimeter=0;" parent="1" source="NdJ_koSOOykiN_rZKej--3" target="NdJ_koSOOykiN_rZKej--12" edge="1">
          <mxGeometry relative="1" as="geometry">
            <mxPoint x="350" y="210" as="sourcePoint" />
            <mxPoint x="270" y="210" as="targetPoint" />
          </mxGeometry>
        </mxCell>
        <mxCell id="NdJ_koSOOykiN_rZKej--11" value="include" style="html=1;verticalAlign=bottom;endArrow=open;dashed=1;endSize=8;curved=0;rounded=0;entryX=0;entryY=0.5;entryDx=0;entryDy=0;exitX=1;exitY=0.5;exitDx=0;exitDy=0;" parent="1" source="NdJ_koSOOykiN_rZKej--6" target="NdJ_koSOOykiN_rZKej--4" edge="1">
          <mxGeometry relative="1" as="geometry">
            <mxPoint x="550" y="260" as="sourcePoint" />
            <mxPoint x="655.0000000000045" y="309.9999999999999" as="targetPoint" />
            <Array as="points" />
          </mxGeometry>
        </mxCell>
        <mxCell id="NdJ_koSOOykiN_rZKej--12" value="Заявки" style="ellipse;whiteSpace=wrap;html=1;" parent="1" vertex="1">
          <mxGeometry x="324" y="340" width="90" height="60" as="geometry" />
        </mxCell>
        <mxCell id="NdJ_koSOOykiN_rZKej--13" value="include" style="html=1;verticalAlign=bottom;endArrow=open;dashed=1;endSize=8;curved=0;rounded=0;entryX=0;entryY=0.5;entryDx=0;entryDy=0;exitX=1;exitY=0.5;exitDx=0;exitDy=0;" parent="1" source="NdJ_koSOOykiN_rZKej--12" target="NdJ_koSOOykiN_rZKej--6" edge="1">
          <mxGeometry relative="1" as="geometry">
            <mxPoint x="470" y="480" as="sourcePoint" />
            <mxPoint x="540" y="460" as="targetPoint" />
            <Array as="points" />
          </mxGeometry>
        </mxCell>
        <mxCell id="MYjAf4Wt6oUY87y9nUD0-2" value="Характеристики автомобиля" style="ellipse;whiteSpace=wrap;html=1;" vertex="1" parent="1">
          <mxGeometry x="250" y="440" width="90" height="60" as="geometry" />
        </mxCell>
        <mxCell id="MYjAf4Wt6oUY87y9nUD0-3" value="Отметка о выполнении рейса" style="ellipse;whiteSpace=wrap;html=1;" vertex="1" parent="1">
          <mxGeometry x="610" y="380" width="90" height="60" as="geometry" />
        </mxCell>
        <mxCell id="MYjAf4Wt6oUY87y9nUD0-4" value="Отметка о состоянии атомобиля" style="ellipse;whiteSpace=wrap;html=1;" vertex="1" parent="1">
          <mxGeometry x="700" y="430" width="90" height="60" as="geometry" />
        </mxCell>
        <mxCell id="MYjAf4Wt6oUY87y9nUD0-5" value="" style="endArrow=none;html=1;rounded=0;exitX=1;exitY=0;exitDx=0;exitDy=0;" edge="1" parent="1" source="MYjAf4Wt6oUY87y9nUD0-3">
          <mxGeometry width="50" height="50" relative="1" as="geometry">
            <mxPoint x="440" y="430" as="sourcePoint" />
            <mxPoint x="760" y="280" as="targetPoint" />
          </mxGeometry>
        </mxCell>
        <mxCell id="MYjAf4Wt6oUY87y9nUD0-6" value="include" style="html=1;verticalAlign=bottom;endArrow=open;dashed=1;endSize=8;curved=0;rounded=0;entryX=0.5;entryY=0;entryDx=0;entryDy=0;exitX=0.5;exitY=1;exitDx=0;exitDy=0;" edge="1" parent="1" source="NdJ_koSOOykiN_rZKej--12" target="MYjAf4Wt6oUY87y9nUD0-2">
          <mxGeometry relative="1" as="geometry">
            <mxPoint x="414" y="490" as="sourcePoint" />
            <mxPoint x="460" y="400" as="targetPoint" />
            <Array as="points" />
          </mxGeometry>
        </mxCell>
        <mxCell id="MYjAf4Wt6oUY87y9nUD0-7" value="" style="endArrow=none;html=1;rounded=0;entryX=0;entryY=0.3333333333333333;entryDx=0;entryDy=0;entryPerimeter=0;exitX=0.5;exitY=0;exitDx=0;exitDy=0;" edge="1" parent="1" source="MYjAf4Wt6oUY87y9nUD0-4" target="NdJ_koSOOykiN_rZKej--2">
          <mxGeometry width="50" height="50" relative="1" as="geometry">
            <mxPoint x="440" y="430" as="sourcePoint" />
            <mxPoint x="490" y="380" as="targetPoint" />
          </mxGeometry>
        </mxCell>
      </root>
    </mxGraphModel>
  </diagram>
</mxfile>
